<svg width="375" height="304" viewBox="0 0 375 304" fill="none" xmlns="http://www.w3.org/2000/svg">
<g clip-path="url(#clip0)">
<path d="M96.3438 125.911C115.126 125.911 130.353 110.684 130.353 91.9018C130.353 73.1191 115.126 57.8928 96.3438 57.8928C77.5612 57.8928 62.335 73.1191 62.335 91.9018C62.335 110.684 77.5612 125.911 96.3438 125.911Z" fill="#210966"/>
<path d="M375 81.3824V170.832C375 188.169 371.586 205.337 364.952 221.354C358.317 237.372 348.593 251.926 336.333 264.185C324.074 276.444 309.52 286.169 293.503 292.803C277.485 299.438 260.318 302.852 242.981 302.852H0V213.402C0 165.604 25.4036 123.734 63.4503 100.566C70.0066 96.5697 76.9013 93.1575 84.0551 90.3687C88.2651 88.724 92.5582 87.3006 96.9168 86.1044C97.0019 86.076 97.091 86.0517 97.176 86.0315C98.4638 85.6792 99.7597 85.3471 101.064 85.0353C101.137 85.015 101.205 84.9988 101.278 84.9826C109.315 83.0677 117.514 81.9112 125.767 81.5282C126.743 81.4837 127.719 81.4472 128.703 81.427C129.055 81.4149 129.411 81.4067 129.772 81.4067C130.517 81.3905 131.266 81.3824 132.019 81.3824H375Z" fill="#3F3D56"/>
<path d="M174.946 245.208C78.5288 245.208 0.331719 271.208 0.00390625 303.321H349.888C349.56 271.208 271.363 245.208 174.946 245.208Z" fill="#F2F2F2"/>
<g opacity="0.1">
<path opacity="0.1" d="M142.549 289.237C160.441 289.237 174.946 285.208 174.946 280.238C174.946 275.268 160.441 271.239 142.549 271.239C124.656 271.239 110.151 275.268 110.151 280.238C110.151 285.208 124.656 289.237 142.549 289.237Z" fill="black"/>
</g>
<g opacity="0.1">
<path opacity="0.1" d="M212.608 273.039C230.5 273.039 245.005 269.01 245.005 264.039C245.005 259.069 230.5 255.04 212.608 255.04C194.715 255.04 180.21 259.069 180.21 264.039C180.21 269.01 194.715 273.039 212.608 273.039Z" fill="black"/>
</g>
<g opacity="0.1">
<path opacity="0.1" d="M142.549 288.338C158.652 288.338 171.706 284.711 171.706 280.238C171.706 275.765 158.652 272.139 142.549 272.139C126.445 272.139 113.391 275.765 113.391 280.238C113.391 284.711 126.445 288.338 142.549 288.338Z" fill="black"/>
</g>
<g opacity="0.1">
<path opacity="0.1" d="M212.608 272.139C228.711 272.139 241.765 268.513 241.765 264.04C241.765 259.566 228.711 255.94 212.608 255.94C196.504 255.94 183.45 259.566 183.45 264.04C183.45 268.513 196.504 272.139 212.608 272.139Z" fill="black"/>
</g>
<path d="M55.8855 120.276C57.4511 120.276 58.7203 119.006 58.7203 117.441C58.7203 115.875 57.4511 114.606 55.8855 114.606C54.3199 114.606 53.0508 115.875 53.0508 117.441C53.0508 119.006 54.3199 120.276 55.8855 120.276Z" fill="#F2F2F2"/>
<path d="M299.676 231.237C301.242 231.237 302.511 229.968 302.511 228.402C302.511 226.837 301.242 225.567 299.676 225.567C298.11 225.567 296.841 226.837 296.841 228.402C296.841 229.968 298.11 231.237 299.676 231.237Z" fill="#F2F2F2"/>
<path d="M166.037 140.119C167.602 140.119 168.871 138.85 168.871 137.284C168.871 135.719 167.602 134.45 166.037 134.45C164.471 134.45 163.202 135.719 163.202 137.284C163.202 138.85 164.471 140.119 166.037 140.119Z" fill="#F2F2F2"/>
<path d="M306.56 121.896C307.455 121.896 308.18 121.17 308.18 120.276C308.18 119.381 307.455 118.656 306.56 118.656C305.666 118.656 304.94 119.381 304.94 120.276C304.94 121.17 305.666 121.896 306.56 121.896Z" fill="#FF6584"/>
<path d="M62.365 202.889C63.2596 202.889 63.9849 202.164 63.9849 201.269C63.9849 200.375 63.2596 199.65 62.365 199.65C61.4704 199.65 60.7451 200.375 60.7451 201.269C60.7451 202.164 61.4704 202.889 62.365 202.889Z" fill="#FF6584"/>
<path d="M38.067 235.417H37.3292V234.679H37.185V235.417H36.4471V235.561H37.185V236.299H37.3292V235.561H38.067V235.417Z" fill="#F2F2F2"/>
<path d="M274.973 175.482H274.235V174.744H274.091V175.482H273.353V175.626H274.091V176.364H274.235V175.626H274.973V175.482Z" fill="#F2F2F2"/>
<path d="M336.123 163.333H335.385V162.595H335.241V163.333H334.503V163.477H335.241V164.215H335.385V163.477H336.123V163.333Z" fill="#F2F2F2"/>
<path d="M204.508 195.73H203.771V194.992H203.627V195.73H202.889V195.874H203.627V196.612H203.771V195.874H204.508V195.73Z" fill="#F2F2F2"/>
<path d="M318.305 199.78H317.567V199.042H317.423V199.78H316.684V199.924H317.423V200.662H317.567V199.924H318.305V199.78Z" fill="#F2F2F2"/>
<path d="M181.021 217.194H180.283V216.456H180.139V217.194H179.401V217.338H180.139V218.076H180.283V217.338H181.021V217.194Z" fill="#F2F2F2"/>
<path d="M232.856 218.004H232.118V217.266H231.974V218.004H231.236V218.148H231.974V218.885H232.118V218.148H232.856V218.004Z" fill="#F2F2F2"/>
<path d="M38.8768 149.159H38.139V148.421H37.9948V149.159H37.257V149.303H37.9948V150.041H38.139V149.303H38.8768V149.159Z" fill="#F2F2F2"/>
<path d="M275.326 93.4219H274.162V116.936H275.326V93.4219Z" fill="#E6E6E6"/>
<path d="M247.738 155.931L237.029 180.609L239.124 184.102L238.425 185.265L243.315 187.826V186.43L245.177 185.964L253.093 171.53L247.738 155.931Z" fill="#E6E6E6"/>
<path d="M239.357 185.033C239.357 185.033 231.442 197.372 240.288 199.234C249.135 201.097 241.918 186.197 241.918 186.197L239.357 185.033Z" fill="#E6E6E6"/>
<path d="M250.764 179.445L247.971 188.525L246.807 200.165L244.711 204.356L247.04 223.214L250.764 226.939L252.394 245.564V253.945L256.818 261.628L251.121 269.712C250.853 270.092 250.692 270.538 250.656 271.002C250.62 271.466 250.711 271.931 250.918 272.347C251.125 272.764 251.442 273.117 251.833 273.368C252.225 273.619 252.677 273.76 253.142 273.775C254.4 273.808 256.058 273.452 258.214 272.337C264.966 268.845 264.733 265.585 264.733 265.585C264.733 265.585 268.924 265.585 269.156 262.326C269.389 259.067 266.595 235.785 266.595 235.785L264.035 225.775V198.536H264.966L265.431 221.817L267.527 230.431L267.76 234.156L270.786 271.406C270.786 271.406 284.289 275.131 284.987 272.104C285.686 269.077 279.866 267.215 279.866 267.215L283.358 260.463V247.426L282.194 244.632L280.098 225.775L283.591 222.05L285.453 219.722V201.097L283.125 193.88L282.427 187.826L278.702 178.514C278.702 178.514 261.707 172.927 250.764 179.445Z" fill="white"/>
<path d="M281.03 126.83C281.03 129.631 280.365 132.391 279.091 134.884C277.816 137.378 275.968 139.533 273.698 141.173C271.428 142.813 268.801 143.891 266.034 144.317C263.266 144.744 260.437 144.508 257.778 143.629C255.12 142.749 252.708 141.251 250.741 139.257C248.774 137.264 247.309 134.832 246.465 132.162C245.621 129.492 245.423 126.66 245.887 123.898C246.352 121.136 247.465 118.525 249.135 116.277L249.14 116.272C251.359 113.287 254.463 111.077 258.01 109.957C261.557 108.836 265.367 108.863 268.898 110.032C272.43 111.201 275.503 113.453 277.681 116.469C279.858 119.485 281.03 123.11 281.03 126.83Z" fill="#210966"/>
<g opacity="0.1">
<path opacity="0.1" d="M278.516 119.494L277.072 127.761C266.225 99.6053 248.972 116.901 248.674 117.203C250.457 114.805 252.819 112.898 255.538 111.659C258.258 110.421 261.247 109.891 264.226 110.12C267.206 110.348 270.079 111.328 272.578 112.967C275.077 114.607 277.119 116.852 278.516 119.494Z" fill="black"/>
</g>
<path d="M278.981 118.563L277.537 126.83C266.691 98.674 249.437 115.97 249.139 116.272C250.923 113.874 253.284 111.967 256.004 110.728C258.723 109.489 261.712 108.96 264.692 109.188C267.671 109.417 270.545 110.397 273.043 112.036C275.542 113.675 277.585 115.921 278.981 118.563Z" fill="white"/>
<path d="M276.556 115.073L278.981 123.492C278.981 123.492 273.946 138.583 250.599 139.109L249.833 141.264L247.272 141.963L246.108 146.852L249.368 177.816C249.368 177.816 247.971 180.842 250.299 180.609C250.299 180.609 265.664 175.488 278.935 180.144C278.935 180.144 281.728 181.308 281.03 178.747C281.03 178.747 290.342 172.927 289.644 166.874C288.945 160.821 290.342 132.65 290.342 132.65C290.342 132.65 291.739 124.502 287.549 122.64C287.549 122.64 281.394 114.025 276.556 115.073Z" fill="white"/>
<path d="M271.451 173.901C271.451 173.901 256.865 175.365 260.903 183.454C264.941 191.543 272.131 176.63 272.131 176.63L271.451 173.901Z" fill="#E6E6E6"/>
<path d="M278.935 137.772C278.935 137.772 276.374 140.799 277.305 145.688C278.236 150.577 281.728 161.519 281.728 161.519L269.389 172.927L273.114 178.049L289.877 169.435L293.602 167.106C292.675 157.69 290.371 148.461 286.761 139.714L286.152 138.238C286.152 138.238 281.728 136.375 278.935 137.772Z" fill="#E6E6E6"/>
<path d="M277.77 129.508C280.149 129.508 282.077 127.579 282.077 125.201C282.077 122.822 280.149 120.893 277.77 120.893C275.392 120.893 273.463 122.822 273.463 125.201C273.463 127.579 275.392 129.508 277.77 129.508Z" fill="#E6E6E6"/>
<path d="M274.744 96.4484C276.48 96.4484 277.887 95.0413 277.887 93.3055C277.887 91.5697 276.48 90.1625 274.744 90.1625C273.008 90.1625 271.601 91.5697 271.601 93.3055C271.601 95.0413 273.008 96.4484 274.744 96.4484Z" fill="#E6E6E6"/>
<path d="M194.789 142.679H194.051V141.941H193.907V142.679H193.17V142.823H193.907V143.561H194.051V142.823H194.789V142.679Z" fill="#F2F2F2"/>
<path d="M261.204 120.001H260.466V119.263H260.322V120.001H259.584V120.145H260.322V120.883H260.466V120.145H261.204V120.001Z" fill="#F2F2F2"/>
<path d="M253.915 126.886H253.177V126.148H253.033V126.886H252.295V127.03H253.033V127.768H253.177V127.03H253.915V126.886Z" fill="#F2F2F2"/>
<path d="M225.162 109.746C226.057 109.746 226.782 109.021 226.782 108.127C226.782 107.232 226.057 106.507 225.162 106.507C224.267 106.507 223.542 107.232 223.542 108.127C223.542 109.021 224.267 109.746 225.162 109.746Z" fill="#F2F2F2"/>
<path d="M145.366 119.544C145.366 232.549 131.157 232.549 113.633 232.549C104.573 232.549 96.4003 232.549 90.6205 216.939C88.9588 212.452 87.4908 206.668 86.2602 199.221C83.489 182.483 81.8999 157.329 81.8999 119.544C81.8999 105.015 83.6198 90.7714 86.2602 77.4677C87.5295 71.063 89.012 64.881 90.6205 58.9849C92.5875 51.7662 94.7434 44.9787 96.9187 38.7677C98.377 34.5915 99.8498 30.6722 101.279 27.0531C107.882 10.3484 113.633 -1.52588e-05 113.633 -1.52588e-05C113.633 -1.52588e-05 145.366 57.1343 145.366 119.544Z" fill="#F2F2F2"/>
<g opacity="0.1">
<path opacity="0.1" d="M101.279 27.0531V224.07H96.9188V38.7678C98.3771 34.5916 99.8499 30.6722 101.279 27.0531Z" fill="black"/>
</g>
<path d="M112.664 95.4418C122.297 95.4418 130.105 87.6332 130.105 78.0007C130.105 68.3682 122.297 60.5595 112.664 60.5595C103.032 60.5595 95.223 68.3682 95.223 78.0007C95.223 87.6332 103.032 95.4418 112.664 95.4418Z" fill="#3F3D56"/>
<path d="M150.938 221.89C147.06 212.344 142.081 210.697 138.826 210.841V209.294H87.956V210.841C84.7014 210.697 79.7221 212.344 75.8442 221.89C69.546 237.393 79.7199 264.039 79.7199 264.039C79.7199 264.039 74.2828 226.877 92.3381 226.632C93.9017 228.672 95.8205 230.413 98.0022 231.771V241.766H127.16V232.681C130.01 231.236 132.499 229.168 134.444 226.632C152.499 226.877 147.062 264.039 147.062 264.039C147.062 264.039 157.236 237.393 150.938 221.89Z" fill="#210966"/>
<path d="M112.664 91.566C120.156 91.566 126.23 85.4926 126.23 78.0007C126.23 70.5088 120.156 64.4354 112.664 64.4354C105.172 64.4354 99.099 70.5088 99.099 78.0007C99.099 85.4926 105.172 91.566 112.664 91.566Z" fill="#210966"/>
<path d="M342.607 81.3824H341.797C341.855 90.1538 345.378 98.5466 351.597 104.732C357.817 110.917 366.229 114.394 375 114.404V113.594C366.443 113.584 358.237 110.194 352.169 104.16C346.101 98.1264 342.664 89.9392 342.607 81.3824Z" fill="#210966"/>
<path d="M327.623 81.3824H326.813C326.874 94.1267 331.977 106.329 341.005 115.323C350.034 124.318 362.256 129.374 375 129.387V128.577C362.471 128.563 350.456 123.592 341.579 114.75C332.702 105.907 327.685 93.9117 327.623 81.3824Z" fill="#210966"/>
<path d="M312.23 81.3824H311.42C311.521 116.356 340.003 144.776 375 144.776V143.966C340.448 143.966 312.331 115.91 312.23 81.3824Z" fill="#210966"/>
</g>
<defs>
<clipPath id="clip0">
<rect width="375" height="303.321" fill="white"/>
</clipPath>
</defs>
</svg>
